<?xml version="1.0" encoding="UTF-8" standalone="no"?>
<svg
   width="137.776pt"
   height="71.676pt"
   viewBox="0 0 137.776 71.676"
   version="1.1"
   id="svg105"
   sodipodi:docname="document.svg"
   inkscape:version="1.3 (0e150ed6c4, 2023-07-21)"
   xmlns:inkscape="http://www.inkscape.org/namespaces/inkscape"
   xmlns:sodipodi="http://sodipodi.sourceforge.net/DTD/sodipodi-0.dtd"
   xmlns:xlink="http://www.w3.org/1999/xlink"
   xmlns="http://www.w3.org/2000/svg"
   xmlns:svg="http://www.w3.org/2000/svg">
  <sodipodi:namedview
     id="namedview105"
     pagecolor="#ffffff"
     bordercolor="#000000"
     borderopacity="0.25"
     inkscape:showpageshadow="2"
     inkscape:pageopacity="0.0"
     inkscape:pagecheckerboard="0"
     inkscape:deskcolor="#d1d1d1"
     inkscape:document-units="pt"
     showgrid="false"
     inkscape:zoom="8.5070313"
     inkscape:cx="91.806409"
     inkscape:cy="47.784002"
     inkscape:window-width="1920"
     inkscape:window-height="1009"
     inkscape:window-x="-8"
     inkscape:window-y="-8"
     inkscape:window-maximized="1"
     inkscape:current-layer="svg105" />
  <defs
     id="defs83">
    <g
       id="g11">
      <g
         id="glyph-0-0" />
      <g
         id="glyph-0-1">
        <path
           d="M 3.9375 -0.375 L 3.9375 -1 C 3.703125 -0.875 3.421875 -0.796875 3.140625 -0.796875 C 2.71875 -0.796875 2.609375 -1.3125 2.609375 -1.796875 L 2.609375 -10.046875 L 1.03125 -10.046875 L 1.03125 -1.796875 C 1.03125 -0.8125 1.484375 0.140625 2.34375 0.140625 C 2.90625 0.140625 3.453125 -0.0625 3.9375 -0.375 Z M 3.9375 -0.375 "
           id="path1" />
      </g>
      <g
         id="glyph-0-2">
        <path
           d="M 4.984375 -0.65625 L 4.984375 -1.34375 C 4.609375 -1 4.15625 -0.71875 3.640625 -0.71875 C 2.90625 -0.71875 2.3125 -1.28125 2.3125 -2 C 2.3125 -2.71875 2.90625 -3.28125 3.640625 -3.28125 C 4.109375 -3.28125 4.546875 -3.203125 4.984375 -3.0625 L 4.984375 -3.75 C 4.421875 -4 3.828125 -4.140625 3.234375 -4.140625 C 1.6875 -4.140625 0.59375 -3.421875 0.59375 -2 C 0.59375 -0.625 1.578125 0.140625 3 0.140625 C 3.734375 0.140625 4.40625 -0.203125 4.984375 -0.65625 Z M 6.984375 0 L 6.984375 -4.015625 C 6.984375 -5.421875 5.90625 -6.59375 4.515625 -6.59375 C 3.46875 -6.59375 2.4375 -6.296875 1.5 -5.796875 L 1.5 -5.15625 C 2.25 -5.484375 3.046875 -5.65625 3.84375 -5.65625 C 4.71875 -5.65625 5.40625 -4.90625 5.40625 -4.015625 L 5.40625 0 Z M 6.984375 0 "
           id="path2" />
      </g>
      <g
         id="glyph-0-3">
        <path
           d="M 4.140625 -0.5 L 4.140625 -1.140625 C 3.875 -0.9375 3.5625 -0.796875 3.234375 -0.796875 C 2.8125 -0.796875 2.625 -1.3125 2.625 -1.796875 L 2.625 -5.59375 L 4.140625 -5.59375 L 4.140625 -6.453125 L 2.625 -6.453125 L 2.625 -8.609375 L 1.671875 -8.609375 C 1.671875 -7.515625 1.328125 -6.390625 0.390625 -6.390625 L 0.390625 -5.59375 L 1.046875 -5.59375 L 1.046875 -1.796875 C 1.046875 -0.796875 1.546875 0.140625 2.4375 0.140625 C 3.0625 0.140625 3.640625 -0.125 4.140625 -0.5 Z M 4.140625 -0.5 "
           id="path3" />
      </g>
      <g
         id="glyph-0-4">
        <path
           d="M 7.109375 -3.078125 L 7.109375 -3.234375 C 7.109375 -5.25 5.84375 -6.59375 3.921875 -6.59375 C 2 -6.59375 0.71875 -5.25 0.71875 -3.234375 C 0.71875 -1.203125 2 0.140625 3.921875 0.140625 C 4.734375 0.140625 5.515625 -0.078125 6.234375 -0.46875 L 6.234375 -1.328125 C 5.4375 -0.953125 4.8125 -0.796875 3.921875 -0.796875 C 2.875 -0.796875 2.4375 -2.03125 2.4375 -3.234375 C 2.4375 -4.734375 3.03125 -5.734375 3.921875 -5.734375 C 4.828125 -5.734375 5.390625 -4.78125 5.390625 -3.765625 L 2.875 -3.765625 L 2.875 -3.078125 Z M 7.109375 -3.078125 "
           id="path4" />
      </g>
      <g
         id="glyph-0-5">
        <path
           d="M 6.65625 0 L 4.21875 -3.484375 L 6.578125 -6.453125 L 5.484375 -6.453125 L 3.703125 -4.21875 L 2.140625 -6.453125 L 0.40625 -6.453125 L 2.734375 -3.109375 L 0.265625 0 L 1.359375 0 L 3.25 -2.375 L 4.921875 0 Z M 6.65625 0 "
           id="path5" />
      </g>
      <g
         id="glyph-0-6">
        <path
           d="M 5.34375 -2.546875 L 5.34375 -3.578125 L 0.578125 -3.578125 L 0.578125 -2.546875 Z M 5.34375 -2.546875 "
           id="path6" />
      </g>
      <g
         id="glyph-0-7">
        <path
           d="M 6.984375 0 L 6.984375 -6.453125 L 5.40625 -6.453125 L 5.40625 0 Z M 4.984375 -0.65625 L 4.984375 -1.296875 C 4.546875 -1 4.046875 -0.796875 3.53125 -0.796875 C 2.984375 -0.796875 2.546875 -1.25 2.546875 -1.796875 L 2.546875 -6.453125 L 0.96875 -6.453125 L 0.96875 -1.796875 C 0.96875 -0.75 1.75 0.140625 2.78125 0.140625 C 3.578125 0.140625 4.328125 -0.1875 4.984375 -0.65625 Z M 4.984375 -0.65625 "
           id="path7" />
      </g>
      <g
         id="glyph-0-8">
        <path
           d="M 7.109375 -3.234375 C 7.109375 -5.421875 6 -6.59375 3.921875 -6.59375 C 1.84375 -6.59375 0.71875 -5.421875 0.71875 -3.234375 C 0.71875 -1.03125 1.84375 0.140625 3.921875 0.140625 C 6 0.140625 7.109375 -1.03125 7.109375 -3.234375 Z M 5.390625 -3.234375 C 5.390625 -1.59375 4.875 -0.71875 3.921875 -0.71875 C 2.953125 -0.71875 2.4375 -1.59375 2.4375 -3.234375 C 2.4375 -4.859375 2.953125 -5.734375 3.921875 -5.734375 C 4.875 -5.734375 5.390625 -4.859375 5.390625 -3.234375 Z M 5.390625 -3.234375 "
           id="path8" />
      </g>
      <g
         id="glyph-0-9">
        <path
           d="M 2.609375 0 L 2.609375 -6.453125 L 1.03125 -6.453125 L 1.03125 0 Z M 5.296875 -5.1875 L 5.296875 -6.453125 C 5.15625 -6.515625 4.984375 -6.5625 4.84375 -6.5625 C 4.140625 -6.5625 3.546875 -6.15625 3.046875 -5.671875 L 3.046875 -4.8125 C 3.484375 -5.140625 4 -5.359375 4.546875 -5.359375 C 4.8125 -5.359375 5.0625 -5.3125 5.296875 -5.1875 Z M 5.296875 -5.1875 "
           id="path9" />
      </g>
      <g
         id="glyph-0-10">
        <path
           d="M 3.890625 -0.375 L 3.890625 -1 C 3.640625 -0.875 3.375 -0.796875 3.078125 -0.796875 C 2.671875 -0.796875 2.546875 -1.3125 2.546875 -1.796875 L 2.546875 -6.453125 L 0.96875 -6.453125 L 0.96875 -1.796875 C 0.96875 -0.8125 1.421875 0.140625 2.28125 0.140625 C 2.859375 0.140625 3.40625 -0.0625 3.890625 -0.375 Z M 2.703125 -8.734375 C 2.703125 -9.25 2.28125 -9.671875 1.765625 -9.671875 C 1.25 -9.671875 0.828125 -9.25 0.828125 -8.734375 C 0.828125 -8.21875 1.25 -7.796875 1.765625 -7.796875 C 2.28125 -7.796875 2.703125 -8.21875 2.703125 -8.734375 Z M 2.703125 -8.734375 "
           id="path10" />
      </g>
      <g
         id="glyph-0-11">
        <path
           d="M 2.609375 0 L 2.609375 -10.046875 L 1.03125 -10.046875 L 1.03125 0 Z M 7.046875 0 L 7.046875 -4.65625 C 7.046875 -5.703125 6.265625 -6.59375 5.234375 -6.59375 C 4.453125 -6.59375 3.6875 -6.265625 3.046875 -5.796875 L 3.046875 -5.15625 C 3.46875 -5.453125 3.96875 -5.65625 4.484375 -5.65625 C 5.03125 -5.65625 5.46875 -5.203125 5.46875 -4.65625 L 5.46875 0 Z M 7.046875 0 "
           id="path11" />
      </g>
    </g>
    <clipPath
       id="clip-0">
      <path
         clip-rule="nonzero"
         d="M 0 10 L 137.777344 10 L 137.777344 71 L 0 71 Z M 0 10 "
         id="path12" />
    </clipPath>
    <clipPath
       id="clip-1">
      <path
         clip-rule="nonzero"
         d="M 0 11 L 135 11 L 135 68 L 0 68 Z M 0 11 "
         id="path13" />
    </clipPath>
    <clipPath
       id="clip-2">
      <path
         clip-rule="nonzero"
         d="M 0.140625 10.605469 L 130.539063 10.605469 C 130.539063 32.625 129.460938 45.484375 134.789063 66.847656 C 82.109375 68.6875 52.824219 65.003906 0.140625 63.164063 Z M 0.140625 10.605469 "
         id="path14" />
    </clipPath>
    <linearGradient
       id="linear-pattern-0"
       gradientUnits="userSpaceOnUse"
       x1="0"
       y1="25.002789"
       x2="0"
       y2="74.997203"
       gradientTransform="matrix(2.69327, 0, 0, -1.1618, -67.19785, 97.73575)">
      <stop
         offset="0"
         stop-color="rgb(100%, 100%, 66.998291%)"
         stop-opacity="1"
         id="stop14" />
      <stop
         offset="0.015625"
         stop-color="rgb(100%, 100%, 66.86554%)"
         stop-opacity="1"
         id="stop15" />
      <stop
         offset="0.03125"
         stop-color="rgb(100%, 100%, 66.600037%)"
         stop-opacity="1"
         id="stop16" />
      <stop
         offset="0.046875"
         stop-color="rgb(100%, 100%, 66.334534%)"
         stop-opacity="1"
         id="stop17" />
      <stop
         offset="0.0625"
         stop-color="rgb(100%, 100%, 66.069031%)"
         stop-opacity="1"
         id="stop18" />
      <stop
         offset="0.078125"
         stop-color="rgb(100%, 100%, 65.803528%)"
         stop-opacity="1"
         id="stop19" />
      <stop
         offset="0.09375"
         stop-color="rgb(100%, 100%, 65.538025%)"
         stop-opacity="1"
         id="stop20" />
      <stop
         offset="0.109375"
         stop-color="rgb(100%, 100%, 65.272522%)"
         stop-opacity="1"
         id="stop21" />
      <stop
         offset="0.125"
         stop-color="rgb(100%, 100%, 65.005493%)"
         stop-opacity="1"
         id="stop22" />
      <stop
         offset="0.140625"
         stop-color="rgb(100%, 100%, 64.73999%)"
         stop-opacity="1"
         id="stop23" />
      <stop
         offset="0.15625"
         stop-color="rgb(100%, 100%, 64.474487%)"
         stop-opacity="1"
         id="stop24" />
      <stop
         offset="0.171875"
         stop-color="rgb(100%, 100%, 64.208984%)"
         stop-opacity="1"
         id="stop25" />
      <stop
         offset="0.1875"
         stop-color="rgb(100%, 100%, 63.943481%)"
         stop-opacity="1"
         id="stop26" />
      <stop
         offset="0.203125"
         stop-color="rgb(100%, 100%, 63.677979%)"
         stop-opacity="1"
         id="stop27" />
      <stop
         offset="0.21875"
         stop-color="rgb(100%, 100%, 63.412476%)"
         stop-opacity="1"
         id="stop28" />
      <stop
         offset="0.234375"
         stop-color="rgb(100%, 100%, 63.146973%)"
         stop-opacity="1"
         id="stop29" />
      <stop
         offset="0.25"
         stop-color="rgb(100%, 100%, 62.88147%)"
         stop-opacity="1"
         id="stop30" />
      <stop
         offset="0.265625"
         stop-color="rgb(100%, 100%, 62.615967%)"
         stop-opacity="1"
         id="stop31" />
      <stop
         offset="0.28125"
         stop-color="rgb(100%, 100%, 62.350464%)"
         stop-opacity="1"
         id="stop32" />
      <stop
         offset="0.296875"
         stop-color="rgb(100%, 100%, 62.084961%)"
         stop-opacity="1"
         id="stop33" />
      <stop
         offset="0.3125"
         stop-color="rgb(100%, 100%, 61.817932%)"
         stop-opacity="1"
         id="stop34" />
      <stop
         offset="0.328125"
         stop-color="rgb(100%, 100%, 61.552429%)"
         stop-opacity="1"
         id="stop35" />
      <stop
         offset="0.34375"
         stop-color="rgb(100%, 100%, 61.286926%)"
         stop-opacity="1"
         id="stop36" />
      <stop
         offset="0.359375"
         stop-color="rgb(100%, 100%, 61.021423%)"
         stop-opacity="1"
         id="stop37" />
      <stop
         offset="0.375"
         stop-color="rgb(100%, 100%, 60.75592%)"
         stop-opacity="1"
         id="stop38" />
      <stop
         offset="0.390625"
         stop-color="rgb(100%, 100%, 60.490417%)"
         stop-opacity="1"
         id="stop39" />
      <stop
         offset="0.40625"
         stop-color="rgb(100%, 100%, 60.224915%)"
         stop-opacity="1"
         id="stop40" />
      <stop
         offset="0.421875"
         stop-color="rgb(100%, 100%, 59.959412%)"
         stop-opacity="1"
         id="stop41" />
      <stop
         offset="0.4375"
         stop-color="rgb(100%, 100%, 59.693909%)"
         stop-opacity="1"
         id="stop42" />
      <stop
         offset="0.453125"
         stop-color="rgb(100%, 100%, 59.428406%)"
         stop-opacity="1"
         id="stop43" />
      <stop
         offset="0.46875"
         stop-color="rgb(100%, 100%, 59.162903%)"
         stop-opacity="1"
         id="stop44" />
      <stop
         offset="0.484375"
         stop-color="rgb(100%, 100%, 58.8974%)"
         stop-opacity="1"
         id="stop45" />
      <stop
         offset="0.5"
         stop-color="rgb(100%, 100%, 58.631897%)"
         stop-opacity="1"
         id="stop46" />
      <stop
         offset="0.515625"
         stop-color="rgb(100%, 100%, 58.366394%)"
         stop-opacity="1"
         id="stop47" />
      <stop
         offset="0.53125"
         stop-color="rgb(100%, 100%, 58.099365%)"
         stop-opacity="1"
         id="stop48" />
      <stop
         offset="0.546875"
         stop-color="rgb(100%, 100%, 57.833862%)"
         stop-opacity="1"
         id="stop49" />
      <stop
         offset="0.5625"
         stop-color="rgb(100%, 100%, 57.568359%)"
         stop-opacity="1"
         id="stop50" />
      <stop
         offset="0.578125"
         stop-color="rgb(100%, 100%, 57.302856%)"
         stop-opacity="1"
         id="stop51" />
      <stop
         offset="0.59375"
         stop-color="rgb(100%, 100%, 57.037354%)"
         stop-opacity="1"
         id="stop52" />
      <stop
         offset="0.609375"
         stop-color="rgb(100%, 100%, 56.771851%)"
         stop-opacity="1"
         id="stop53" />
      <stop
         offset="0.625"
         stop-color="rgb(100%, 100%, 56.506348%)"
         stop-opacity="1"
         id="stop54" />
      <stop
         offset="0.640625"
         stop-color="rgb(100%, 100%, 56.240845%)"
         stop-opacity="1"
         id="stop55" />
      <stop
         offset="0.65625"
         stop-color="rgb(100%, 100%, 55.975342%)"
         stop-opacity="1"
         id="stop56" />
      <stop
         offset="0.671875"
         stop-color="rgb(100%, 100%, 55.709839%)"
         stop-opacity="1"
         id="stop57" />
      <stop
         offset="0.6875"
         stop-color="rgb(100%, 100%, 55.444336%)"
         stop-opacity="1"
         id="stop58" />
      <stop
         offset="0.703125"
         stop-color="rgb(100%, 100%, 55.178833%)"
         stop-opacity="1"
         id="stop59" />
      <stop
         offset="0.71875"
         stop-color="rgb(100%, 100%, 54.91333%)"
         stop-opacity="1"
         id="stop60" />
      <stop
         offset="0.734375"
         stop-color="rgb(100%, 100%, 54.647827%)"
         stop-opacity="1"
         id="stop61" />
      <stop
         offset="0.75"
         stop-color="rgb(100%, 100%, 54.382324%)"
         stop-opacity="1"
         id="stop62" />
      <stop
         offset="0.765625"
         stop-color="rgb(100%, 100%, 54.116821%)"
         stop-opacity="1"
         id="stop63" />
      <stop
         offset="0.78125"
         stop-color="rgb(100%, 100%, 53.851318%)"
         stop-opacity="1"
         id="stop64" />
      <stop
         offset="0.796875"
         stop-color="rgb(100%, 100%, 53.585815%)"
         stop-opacity="1"
         id="stop65" />
      <stop
         offset="0.8125"
         stop-color="rgb(100%, 100%, 53.320313%)"
         stop-opacity="1"
         id="stop66" />
      <stop
         offset="0.828125"
         stop-color="rgb(100%, 100%, 53.05481%)"
         stop-opacity="1"
         id="stop67" />
      <stop
         offset="0.84375"
         stop-color="rgb(100%, 100%, 52.789307%)"
         stop-opacity="1"
         id="stop68" />
      <stop
         offset="0.859375"
         stop-color="rgb(100%, 100%, 52.523804%)"
         stop-opacity="1"
         id="stop69" />
      <stop
         offset="0.875"
         stop-color="rgb(100%, 100%, 52.258301%)"
         stop-opacity="1"
         id="stop70" />
      <stop
         offset="0.890625"
         stop-color="rgb(100%, 100%, 51.992798%)"
         stop-opacity="1"
         id="stop71" />
      <stop
         offset="0.90625"
         stop-color="rgb(100%, 100%, 51.727295%)"
         stop-opacity="1"
         id="stop72" />
      <stop
         offset="0.921875"
         stop-color="rgb(100%, 100%, 51.461792%)"
         stop-opacity="1"
         id="stop73" />
      <stop
         offset="0.9375"
         stop-color="rgb(100%, 100%, 51.194763%)"
         stop-opacity="1"
         id="stop74" />
      <stop
         offset="0.953125"
         stop-color="rgb(100%, 100%, 50.92926%)"
         stop-opacity="1"
         id="stop75" />
      <stop
         offset="0.96875"
         stop-color="rgb(100%, 100%, 50.663757%)"
         stop-opacity="1"
         id="stop76" />
      <stop
         offset="0.984375"
         stop-color="rgb(100%, 100%, 50.398254%)"
         stop-opacity="1"
         id="stop77" />
      <stop
         offset="1"
         stop-color="rgb(100%, 100%, 50.132751%)"
         stop-opacity="1"
         id="stop78" />
    </linearGradient>
    <clipPath
       id="clip-3">
      <path
         clip-rule="nonzero"
         d="M 0 9 L 22.679688 9 L 22.679688 15 L 0 15 Z M 0 9 "
         id="path78" />
    </clipPath>
    <clipPath
       id="clip-4">
      <path
         clip-rule="nonzero"
         d="M 0 4 L 22.679688 4 L 22.679688 10 L 0 10 Z M 0 4 "
         id="path79" />
    </clipPath>
    <clipPath
       id="clip-5">
      <path
         clip-rule="nonzero"
         d="M 0 14 L 22.679688 14 L 22.679688 21 L 0 21 Z M 0 14 "
         id="path80" />
    </clipPath>
    <clipPath
       id="clip-6">
      <rect
         x="0"
         y="0"
         width="23"
         height="24"
         id="rect80" />
    </clipPath>
    <g
       id="source-47601"
       clip-path="url(#clip-6)">
      <g
         clip-path="url(#clip-3)"
         id="g81">
        <path
           fill-rule="nonzero"
           fill="rgb(93.331909%, 93.331909%, 93.331909%)"
           fill-opacity="1"
           d="M 0 9.667969 L 22.679688 9.667969 L 22.679688 14.707031 L 0 14.707031 Z M 0 9.667969 "
           id="path81" />
      </g>
      <g
         clip-path="url(#clip-4)"
         id="g82">
        <path
           fill-rule="nonzero"
           fill="rgb(80.39093%, 16.470337%, 24.313354%)"
           fill-opacity="1"
           d="M 20.160156 4 L 2.519531 4 C 1.128906 4 0 5.128906 0 6.519531 L 0 9.667969 L 22.679688 9.667969 L 22.679688 6.519531 C 22.679688 5.128906 21.550781 4 20.160156 4 Z M 20.160156 4 "
           id="path82" />
      </g>
      <g
         clip-path="url(#clip-5)"
         id="g83">
        <path
           fill-rule="nonzero"
           fill="rgb(26.274109%, 43.528748%, 30.195618%)"
           fill-opacity="1"
           d="M 2.519531 20.378906 L 20.160156 20.378906 C 21.550781 20.378906 22.679688 19.25 22.679688 17.855469 L 22.679688 14.707031 L 0 14.707031 L 0 17.855469 C 0 19.25 1.128906 20.378906 2.519531 20.378906 Z M 2.519531 20.378906 "
           id="path83" />
      </g>
    </g>
  </defs>
  <g
     clip-path="url(#clip-0)"
     id="g84">
    <path
       fill-rule="nonzero"
       fill="rgb(50%, 50%, 50%)"
       fill-opacity="0.5"
       d="M 0.140625 10.605469 L 130.539063 10.605469 C 130.539063 33.882813 132.144531 47.246094 137.777344 69.835938 C 85.097656 71.675781 55.8125 67.992188 3.128906 66.152344 Z M 0.140625 10.605469 "
       id="path84" />
  </g>
  <path
     fill-rule="nonzero"
     fill="rgb(25%, 25%, 25%)"
     fill-opacity="0.5"
     d="M 0.140625 10.605469 L 130.539063 10.605469 C 130.539063 33.492188 131.246094 46.632813 136.78125 68.839844 C 84.101563 70.679688 54.816406 66.996094 2.132813 65.15625 Z M 0.140625 10.605469 "
     id="path85" />
  <path
     fill-rule="nonzero"
     fill="rgb(0%, 0%, 0%)"
     fill-opacity="0.5"
     d="M 0.140625 10.605469 L 130.539063 10.605469 C 130.539063 33.101563 130.34375 46.015625 135.785156 67.84375 C 83.105469 69.683594 53.820313 66 1.136719 64.160156 Z M 0.140625 10.605469 "
     id="path86" />
  <g
     clip-path="url(#clip-1)"
     id="g88">
    <g
       clip-path="url(#clip-2)"
       id="g87">
      <path
         fill-rule="nonzero"
         fill="url(#linear-pattern-0)"
         d="M 0.140625 68.6875 L 0.140625 10.605469 L 134.789063 10.605469 L 134.789063 68.6875 Z M 0.140625 68.6875 "
         id="path87" />
    </g>
  </g>
  <path
     fill="none"
     stroke-width="0.28346"
     stroke-linecap="round"
     stroke-linejoin="bevel"
     stroke="rgb(56.176758%, 54.31366%, 28.137207%)"
     stroke-opacity="1"
     stroke-miterlimit="10"
     d="M -0.001375 -0.00146875 L 130.397063 -0.00146875 C 130.397063 -22.021 129.318938 -34.880375 134.647063 -56.243656 C 81.967375 -58.0835 52.682219 -54.399906 -0.001375 -52.560063 Z M -0.001375 -0.00146875 "
     transform="matrix(1, 0, 0, -1, 0.142, 10.604)"
     id="path88" />
  <g
     fill="rgb(0%, 0%, 0%)"
     fill-opacity="1"
     id="g91">
    <use
       xlink:href="#glyph-0-1"
       x="12.48"
       y="35.019"
       id="use88" />
    <use
       xlink:href="#glyph-0-2"
       x="16.683437"
       y="35.019"
       id="use89" />
    <use
       xlink:href="#glyph-0-3"
       x="24.702962"
       y="35.019"
       id="use90" />
    <use
       xlink:href="#glyph-0-4"
       x="29.236362"
       y="35.019"
       id="use91" />
  </g>
  <g
     fill="rgb(0%, 0%, 0%)"
     fill-opacity="1"
     id="g92">
    <use
       xlink:href="#glyph-0-5"
       x="36.825501"
       y="35.019"
       id="use92" />
  </g>
  <g
     fill="rgb(0%, 0%, 0%)"
     fill-opacity="1"
     id="g104">
    <use
       xlink:href="#glyph-0-6"
       x="43.482138"
       y="35.019"
       id="use93" />
    <use
       xlink:href="#glyph-0-3"
       x="49.407119"
       y="35.019"
       id="use94" />
    <use
       xlink:href="#glyph-0-7"
       x="53.940518"
       y="35.019"
       id="use95" />
    <use
       xlink:href="#glyph-0-3"
       x="61.960044"
       y="35.019"
       id="use96" />
    <use
       xlink:href="#glyph-0-8"
       x="66.493443"
       y="35.019"
       id="use97" />
    <use
       xlink:href="#glyph-0-9"
       x="74.312122"
       y="35.019"
       id="use98" />
    <use
       xlink:href="#glyph-0-10"
       x="79.864101"
       y="35.019"
       id="use99" />
    <use
       xlink:href="#glyph-0-2"
       x="84.010153"
       y="35.019"
       id="use100" />
    <use
       xlink:href="#glyph-0-1"
       x="92.029679"
       y="35.019"
       id="use101" />
    <use
       xlink:href="#glyph-0-6"
       x="96.233116"
       y="35.019"
       id="use102" />
    <use
       xlink:href="#glyph-0-11"
       x="102.158096"
       y="35.019"
       id="use103" />
    <use
       xlink:href="#glyph-0-7"
       x="110.177622"
       y="35.019"
       id="use104" />
  </g>
  <use
     xlink:href="#source-47601"
     transform="matrix(1, 0, 0, 1, 54, 38)"
     id="use105" />
  <path
     fill-rule="nonzero"
     fill="rgb(75%, 75%, 75%)"
     fill-opacity="0.75"
     stroke-width="0.3985"
     stroke-linecap="round"
     stroke-linejoin="bevel"
     stroke="rgb(75%, 75%, 75%)"
     stroke-opacity="1"
     stroke-miterlimit="10"
     d="M 42.678312 -10.403813 L 88.678313 -7.993656 L 88.154875 -7.524906 L 89.100188 -6.478031 L 88.053313 -5.532719 L 88.994719 -4.485844 L 87.947844 -3.544438 L 88.88925 -2.497563 L 87.842375 -1.55225 L 88.787688 -0.505375 L 87.740813 0.436031 L 88.682219 1.482906 L 87.635344 2.424312 L 88.57675 3.471187 L 87.529875 4.4165 L 88.475188 5.463375 L 87.428313 6.404781 L 88.369719 7.451656 L 87.322844 8.393062 L 88.26425 9.443844 L 87.740813 9.912594 L 87.717375 10.404781 L 41.717375 7.994625 L 42.240812 7.521969 L 41.2955 6.475094 L 42.342375 5.533687 L 41.400969 4.486812 L 42.447844 3.545406 L 41.506437 2.498531 L 42.553312 1.553219 L 41.608 0.506344 L 42.654875 -0.435063 L 41.713469 -1.481938 L 42.760344 -2.42725 L 41.815031 -3.474125 L 42.861906 -4.415531 L 41.9205 -5.462406 L 42.967375 -6.403813 L 42.025969 -7.450688 L 43.072844 -8.396 L 42.127531 -9.442875 L 42.650969 -9.911625 L 42.678312 -10.403813 "
     transform="matrix(1, 0, 0, -1, 0.142, 10.604)"
     id="path105" />
</svg>
